<svg width="77" height="78" viewBox="0 0 77 78" fill="none" xmlns="http://www.w3.org/2000/svg">
<path d="M38.5 2.5C58.9345 2.5 75.5 19.0656 75.5 39.4999C75.5 59.9346 58.9345 76.4999 38.5 76.4999C18.0655 76.4999 1.5 59.9346 1.5 39.4999C1.5 19.0656 18.0655 2.5 38.5 2.5Z" fill="#F7FAFC" fill-opacity="0.01" stroke="#EEEEEE"/>
<path d="M48.6295 27.4286C47.9732 27.4286 47.3571 27.7232 46.8884 28.1518L38.3438 35.9062C37.5536 36.6295 37.1116 37.6741 37.1116 38.7455C37.1116 40.9955 38.9598 42.9241 41.2232 42.9241C42.3616 42.9241 43.3259 42.4687 44.1429 41.7054C45.817 40.1652 49.3259 33.6161 50.3705 31.6339C50.692 31.0045 50.9732 30.3214 50.9732 29.6116C50.9732 28.3393 49.8482 27.4286 48.6295 27.4286ZM36.4554 41.2768C33.442 41.4107 31.6607 41.9464 30.5223 44.9196C30.4018 45.2277 30.1205 45.4152 29.7857 45.4152C29.2232 45.4152 27.4955 44.0357 27 43.7009C27 47.8125 28.9688 51.4286 33.5089 51.4286C37.3393 51.4286 39.9911 48.8036 39.9107 44.9866L39.8973 44.0357C38.4241 43.6473 37.1518 42.6295 36.4554 41.2768Z" fill="#F31F79"/>
</svg>
