<svg width="77" height="77" viewBox="0 0 77 77" fill="none" xmlns="http://www.w3.org/2000/svg">
<path d="M38.5 1.5C58.9345 1.5 75.5 18.0656 75.5 38.5C75.5 58.9347 58.9346 75.4999 38.5 75.4999C18.0655 75.4999 1.5 58.9347 1.5 38.5C1.5 18.0656 18.0655 1.5 38.5 1.5Z" fill="#F7FAFC" fill-opacity="0.01" stroke="#EEEEEE"/>
<path d="M36 26.4286C29.3705 26.4286 24 31.7991 24 38.4286C24 45.058 29.3705 50.4286 36 50.4286C42.6295 50.4286 48 45.058 48 38.4286C48 31.7991 42.6295 26.4286 36 26.4286ZM36 28.1429C37.7411 28.1429 39.3884 28.5848 40.8348 29.3482L38.2366 31.9464C37.5268 31.7054 36.7902 31.5714 36 31.5714C35.2232 31.5714 34.4732 31.7054 33.7634 31.9464L31.1652 29.3482C32.6116 28.5848 34.2589 28.1429 36 28.1429ZM26.9196 43.2634C26.1563 41.817 25.7143 40.1696 25.7143 38.4286C25.7143 36.6875 26.1563 35.0402 26.9196 33.5938L29.5179 36.192C29.2768 36.9018 29.1429 37.6384 29.1429 38.4286C29.1429 39.2054 29.2768 39.9554 29.5179 40.6652L26.9196 43.2634ZM36 48.7143C34.2589 48.7143 32.6116 48.2723 31.1652 47.5089L33.7634 44.9107C34.4732 45.1518 35.2232 45.2857 36 45.2857C36.7902 45.2857 37.5268 45.1518 38.2366 44.9107L40.8348 47.5089C39.3884 48.2723 37.7411 48.7143 36 48.7143ZM36 43.5714C33.1607 43.5714 30.8571 41.2679 30.8571 38.4286C30.8571 35.5893 33.1607 33.2857 36 33.2857C38.8393 33.2857 41.1429 35.5893 41.1429 38.4286C41.1429 41.2679 38.8393 43.5714 36 43.5714ZM42.4821 40.6652C42.7232 39.9554 42.8571 39.2054 42.8571 38.4286C42.8571 37.6518 42.7232 36.9018 42.4821 36.192L45.0804 33.5938C45.8438 35.0402 46.2857 36.6875 46.2857 38.4286C46.2857 40.1696 45.8438 41.817 45.0804 43.2634L42.4821 40.6652Z" fill="#F31F79"/>
</svg>
