<svg width="77" height="77" viewBox="0 0 77 77" fill="none" xmlns="http://www.w3.org/2000/svg">
<path d="M38.5 1.5C58.9345 1.5 75.5 18.0656 75.5 38.5C75.5 58.9347 58.9346 75.4999 38.5 75.4999C18.0655 75.4999 1.5 58.9347 1.5 38.5C1.5 18.0656 18.0655 1.5 38.5 1.5Z" fill="#F7FAFC" fill-opacity="0.01" stroke="#EEEEEE"/>
<path d="M48.3717 32.8036L42.9074 27.3393C42.7734 27.2054 42.6127 27.0848 42.4252 26.9643V33.2857H48.7467C48.6261 33.0982 48.5056 32.9375 48.3717 32.8036ZM41.9967 35C41.2868 35 40.7109 34.4241 40.7109 33.7143V26.4286H29.9967C29.2868 26.4286 28.7109 27.0045 28.7109 27.7143V49.1429C28.7109 49.8527 29.2868 50.4286 29.9967 50.4286H47.9967C48.7065 50.4286 49.2824 49.8527 49.2824 49.1429V35H41.9967ZM44.1395 44.8571C44.1395 45.0982 43.952 45.2857 43.7109 45.2857H34.2824C34.0413 45.2857 33.8538 45.0982 33.8538 44.8571V44C33.8538 43.7589 34.0413 43.5714 34.2824 43.5714H43.7109C43.952 43.5714 44.1395 43.7589 44.1395 44V44.8571ZM44.1395 41.4286C44.1395 41.6696 43.952 41.8571 43.7109 41.8571H34.2824C34.0413 41.8571 33.8538 41.6696 33.8538 41.4286V40.5714C33.8538 40.3304 34.0413 40.1429 34.2824 40.1429H43.7109C43.952 40.1429 44.1395 40.3304 44.1395 40.5714V41.4286ZM44.1395 38C44.1395 38.2411 43.952 38.4286 43.7109 38.4286H34.2824C34.0413 38.4286 33.8538 38.2411 33.8538 38V37.1429C33.8538 36.9018 34.0413 36.7143 34.2824 36.7143H43.7109C43.952 36.7143 44.1395 36.9018 44.1395 37.1429V38Z" fill="#F31F79"/>
</svg>
