<svg width="77" height="77" viewBox="0 0 77 77" fill="none" xmlns="http://www.w3.org/2000/svg">
<path d="M38.5 1.5C58.9345 1.5 75.5 18.0656 75.5 38.5C75.5 58.9347 58.9346 75.4999 38.5 75.4999C18.0655 75.4999 1.5 58.9347 1.5 38.5C1.5 18.0656 18.0655 1.5 38.5 1.5Z" fill="#F7FAFC" fill-opacity="0.01" stroke="#EEEEEE"/>
<path d="M36.4235 29C36.4235 29.4687 36.0352 29.8571 35.5664 29.8571C35.0977 29.8571 34.7093 29.4687 34.7093 29C34.7093 28.5312 35.0977 28.1429 35.5664 28.1429C36.0352 28.1429 36.4235 28.5312 36.4235 29ZM48.4236 28.5714C48.4236 28.4375 48.37 28.317 48.2628 28.2366C48.1825 28.1696 48.0887 28.1429 47.995 28.1429C47.9682 28.1429 47.9414 28.1429 47.9012 28.1562L41.9012 29.442C41.7137 29.4821 41.5664 29.6562 41.5664 29.8571H37.5218C37.6423 29.5893 37.7093 29.308 37.7093 29C37.7093 27.8214 36.745 26.8571 35.5664 26.8571C34.3878 26.8571 33.4235 27.8214 33.4235 29C33.4235 29.4286 33.5575 29.817 33.7584 30.1518C31.0664 31.0223 29.7271 33.6205 29.6602 33.7545C29.4459 34.183 29.62 34.692 30.0352 34.9062C30.1557 34.9732 30.2896 35 30.4235 35C30.7316 35 31.0396 34.8259 31.1869 34.5312C31.2003 34.5045 32.7271 31.5714 35.5664 31.5714H35.995V33.058C34.2539 33.5938 32.995 35.2277 32.995 37.1429V47.8571C32.995 48.3259 33.3834 48.7143 33.8521 48.7143H40.7093C41.178 48.7143 41.5664 48.3259 41.5664 47.8571V37.1429C41.5664 35.067 40.0932 33.3393 38.1378 32.9375V31.5714H41.5664C41.5664 31.7723 41.7137 31.9464 41.9012 31.9866L47.9012 33.2723C47.9414 33.2857 47.9682 33.2857 47.995 33.2857C48.0887 33.2857 48.1825 33.2589 48.2628 33.192C48.37 33.1116 48.4236 32.9911 48.4236 32.8571V28.5714Z" fill="#F31F79"/>
</svg>
