<svg width="77" height="78" viewBox="0 0 77 78" fill="none" xmlns="http://www.w3.org/2000/svg">
<path d="M38.5 2.5C58.9345 2.5 75.5 19.0656 75.5 39.4999C75.5 59.9346 58.9345 76.4999 38.5 76.4999C18.0655 76.4999 1.5 59.9346 1.5 39.4999C1.5 19.0656 18.0655 2.5 38.5 2.5Z" fill="#F7FAFC" fill-opacity="0.01" stroke="#EEEEEE"/>
<path d="M42.4252 40.4286C42.4252 42.317 40.885 43.8571 38.9967 43.8571C37.1083 43.8571 35.5681 42.317 35.5681 40.4286C35.5681 38.5402 37.1083 37 38.9967 37C40.885 37 42.4252 38.5402 42.4252 40.4286ZM49.2824 38.9687C49.2824 38.7411 49.1217 38.5268 48.894 38.4866L46.4431 38.1116C46.3092 37.6696 46.1217 37.2277 45.894 36.7991C46.3493 36.1696 46.8449 35.5804 47.3002 34.9643C47.3672 34.8705 47.4074 34.7768 47.4074 34.6562C47.4074 34.5491 47.3806 34.442 47.3136 34.3616C46.7511 33.5714 45.8136 32.7411 45.1038 32.0848C45.01 32.0045 44.8895 31.9509 44.769 31.9509C44.6484 31.9509 44.5279 31.9911 44.4475 32.0714L42.5458 33.5045C42.1574 33.3036 41.7556 33.1429 41.3404 33.0089L40.9654 30.5446C40.9386 30.317 40.7243 30.1429 40.4833 30.1429H37.51C37.269 30.1429 37.0815 30.3036 37.0279 30.5179C36.8136 31.3214 36.7333 32.192 36.6395 33.0089C36.2243 33.1429 35.8092 33.317 35.4208 33.5179L33.5725 32.0848C33.4654 32.0045 33.3449 31.9509 33.2243 31.9509C32.769 31.9509 30.9609 33.9062 30.6395 34.3482C30.5725 34.442 30.519 34.5357 30.519 34.6562C30.519 34.7768 30.5725 34.8839 30.6529 34.9777C31.1484 35.5804 31.6306 36.183 32.0859 36.8259C31.8717 37.2277 31.6975 37.6295 31.5636 38.058L29.0725 38.433C28.8717 38.4732 28.7109 38.7143 28.7109 38.9152V41.8884C28.7109 42.1161 28.8717 42.3304 29.0993 42.3705L31.5502 42.7321C31.6842 43.1875 31.8717 43.6295 32.0993 44.058C31.644 44.6875 31.1484 45.2768 30.6931 45.8929C30.6261 45.9866 30.5859 46.0804 30.5859 46.2009C30.5859 46.308 30.6127 46.4152 30.6797 46.5089C31.2422 47.2857 32.1797 48.1161 32.8895 48.7589C32.9833 48.8527 33.1038 48.9062 33.2243 48.9062C33.3449 48.9062 33.4654 48.8661 33.5592 48.7857L35.4475 47.3527C35.8359 47.5536 36.2377 47.7143 36.6529 47.8482L37.0279 50.3125C37.0547 50.5402 37.269 50.7143 37.51 50.7143H40.4833C40.7243 50.7143 40.9118 50.5536 40.9654 50.3393C41.1797 49.5357 41.26 48.6652 41.3538 47.8482C41.769 47.7143 42.1842 47.5402 42.5725 47.3393L44.4208 48.7857C44.5279 48.8527 44.6484 48.9062 44.769 48.9062C45.2243 48.9062 47.0324 46.9375 47.3538 46.5089C47.4342 46.4152 47.4743 46.3214 47.4743 46.2009C47.4743 46.0804 47.4208 45.9598 47.3404 45.8661C46.8449 45.2634 46.3627 44.6741 45.9074 44.0179C46.1217 43.6295 46.2824 43.2277 46.4297 42.7991L48.9074 42.4241C49.1217 42.3839 49.2824 42.1429 49.2824 41.942V38.9687Z" fill="#F31F79"/>
</svg>
