<svg width="77" height="78" viewBox="0 0 77 78" fill="none" xmlns="http://www.w3.org/2000/svg">
<path d="M38.5 2.5C58.9345 2.5 75.5 19.0656 75.5 39.4999C75.5 59.9346 58.9345 76.4999 38.5 76.4999C18.0655 76.4999 1.5 59.9346 1.5 39.4999C1.5 19.0656 18.0655 2.5 38.5 2.5Z" fill="#F7FAFC" fill-opacity="0.01" stroke="#EEEEEE"/>
<path d="M31.6445 34.4286C31.6445 35.3795 30.8811 36.1429 29.9302 36.1429C28.9794 36.1429 28.216 35.3795 28.216 34.4286C28.216 33.4777 28.9794 32.7143 29.9302 32.7143C30.8811 32.7143 31.6445 33.4777 31.6445 34.4286ZM45.9347 42.1429C45.9347 41.6875 45.7472 41.2455 45.4392 40.9241L35.8633 31.3616C35.1802 30.6786 33.8811 30.1429 32.9302 30.1429H27.3588C26.4213 30.1429 25.6445 30.9196 25.6445 31.8571V37.4286C25.6445 38.3795 26.1802 39.6786 26.8633 40.3482L36.4392 49.9375C36.7472 50.2455 37.1892 50.433 37.6445 50.433C38.0999 50.433 38.5419 50.2455 38.8633 49.9375L45.4392 43.3482C45.7472 43.0402 45.9347 42.5982 45.9347 42.1429ZM51.0776 42.1429C51.0776 41.6875 50.8901 41.2455 50.582 40.9241L41.0061 31.3616C40.3231 30.6786 39.024 30.1429 38.0731 30.1429H35.0731C36.024 30.1429 37.3231 30.6786 38.0061 31.3616L47.582 40.9241C47.8901 41.2455 48.0776 41.6875 48.0776 42.1429C48.0776 42.5982 47.8901 43.0402 47.582 43.3482L41.2874 49.6429C41.7427 50.1116 42.091 50.433 42.7874 50.433C43.2427 50.433 43.6847 50.2455 44.0061 49.9375L50.582 43.3482C50.8901 43.0402 51.0776 42.5982 51.0776 42.1429Z" fill="#F31F79"/>
</svg>
