<svg width="14" height="15" viewBox="0 0 14 15" fill="none" xmlns="http://www.w3.org/2000/svg">
<path d="M11.4643 5.83929C11.4643 5.99107 11.4107 6.13393 11.3036 6.24107L6.45536 11.0893C6.34821 11.1964 6.19643 11.2589 6.04464 11.2589C5.90179 11.2589 5.75 11.1964 5.64286 11.0893L2.41071 7.85714C2.30357 7.75 2.25 7.60714 2.25 7.45536C2.25 7.30357 2.30357 7.15179 2.41071 7.04464L3.22321 6.24107C3.33036 6.13393 3.47321 6.07143 3.625 6.07143C3.77679 6.07143 3.91964 6.13393 4.02679 6.24107L6.04464 8.25893L9.6875 4.625C9.79464 4.51786 9.9375 4.45536 10.0893 4.45536C10.2411 4.45536 10.3839 4.51786 10.4911 4.625L11.3036 5.42857C11.4107 5.53571 11.4643 5.6875 11.4643 5.83929ZM13.7143 7.28571C13.7143 3.5 10.6429 0.428571 6.85714 0.428571C3.07143 0.428571 0 3.5 0 7.28571C0 11.0714 3.07143 14.1429 6.85714 14.1429C10.6429 14.1429 13.7143 11.0714 13.7143 7.28571Z" fill="white"/>
</svg>
