<svg width="129" height="43" viewBox="0 0 129 43" fill="none" xmlns="http://www.w3.org/2000/svg">
<g clip-path="url(#clip0)">
<path d="M62.332 36.216C60.748 36.216 59.32 35.952 58.048 35.424C56.776 34.872 55.768 33.996 55.024 32.796C54.28 31.572 53.908 29.952 53.908 27.936V17.928C53.908 15.936 54.28 14.34 55.024 13.14C55.768 11.916 56.764 11.04 58.012 10.512C59.284 9.96 60.676 9.684 62.188 9.684C63.844 9.684 65.32 9.96 66.616 10.512C67.912 11.064 68.932 11.856 69.676 12.888C70.42 13.92 70.792 15.156 70.792 16.596C70.792 17.484 70.588 18.084 70.18 18.396C69.796 18.684 69.22 18.828 68.452 18.828C67.828 18.828 67.288 18.72 66.832 18.504C66.376 18.288 66.136 17.904 66.112 17.352C66.064 16.776 65.944 16.224 65.752 15.696C65.56 15.144 65.2 14.688 64.672 14.328C64.144 13.968 63.364 13.788 62.332 13.788C61.156 13.788 60.232 14.136 59.56 14.832C58.912 15.504 58.588 16.536 58.588 17.928V27.936C58.588 29.352 58.912 30.408 59.56 31.104C60.232 31.776 61.156 32.112 62.332 32.112C63.508 32.112 64.432 31.776 65.104 31.104C65.776 30.408 66.112 29.352 66.112 27.936V25.848H63.196C62.74 25.848 62.38 25.668 62.116 25.308C61.876 24.924 61.756 24.492 61.756 24.012C61.756 23.556 61.876 23.136 62.116 22.752C62.38 22.368 62.74 22.176 63.196 22.176H69.316C69.796 22.176 70.156 22.332 70.396 22.644C70.66 22.956 70.792 23.304 70.792 23.688V27.936C70.792 29.952 70.408 31.572 69.64 32.796C68.896 33.996 67.888 34.872 66.616 35.424C65.344 35.952 63.916 36.216 62.332 36.216ZM76.4243 36C75.7523 36 75.2003 35.844 74.7683 35.532C74.3363 35.22 74.1203 34.872 74.1203 34.488V20.34C74.1203 19.908 74.3363 19.56 74.7683 19.296C75.2003 19.032 75.7523 18.9 76.4243 18.9C77.0723 18.9 77.6243 19.032 78.0803 19.296C78.5363 19.56 78.7643 19.908 78.7643 20.34V34.488C78.7643 34.872 78.5363 35.22 78.0803 35.532C77.6243 35.844 77.0723 36 76.4243 36ZM76.4243 15.084C75.7043 15.084 75.0923 14.856 74.5883 14.4C74.1083 13.944 73.8683 13.416 73.8683 12.816C73.8683 12.216 74.1083 11.688 74.5883 11.232C75.0923 10.776 75.7043 10.548 76.4243 10.548C77.1203 10.548 77.7083 10.776 78.1883 11.232C78.6923 11.688 78.9443 12.216 78.9443 12.816C78.9443 13.416 78.6923 13.944 78.1883 14.4C77.7083 14.856 77.1203 15.084 76.4243 15.084ZM85.9837 36.324C84.7117 36.324 83.6077 35.94 82.6717 35.172C81.7597 34.38 81.3037 33.168 81.3037 31.536C81.3037 30.168 81.6517 29.1 82.3477 28.332C83.0677 27.564 84.0517 27.024 85.2997 26.712C86.5717 26.4 88.0357 26.244 89.6917 26.244H91.1677V25.776C91.1677 25.248 91.0597 24.732 90.8437 24.228C90.6517 23.724 90.3277 23.304 89.8717 22.968C89.4157 22.632 88.7917 22.464 87.9997 22.464C87.0877 22.464 86.3797 22.56 85.8757 22.752C85.3957 22.92 85.0117 23.1 84.7237 23.292C84.4597 23.484 84.1837 23.58 83.8957 23.58C83.3917 23.58 82.9957 23.328 82.7077 22.824C82.4437 22.32 82.3117 21.804 82.3117 21.276C82.3117 20.772 82.6117 20.328 83.2117 19.944C83.8117 19.56 84.5557 19.26 85.4437 19.044C86.3557 18.804 87.2317 18.684 88.0717 18.684C89.9437 18.684 91.4437 19.02 92.5717 19.692C93.6997 20.364 94.5157 21.24 95.0197 22.32C95.5477 23.376 95.8117 24.504 95.8117 25.704V34.488C95.8117 34.92 95.5957 35.28 95.1637 35.568C94.7317 35.856 94.1917 36 93.5437 36C92.9437 36 92.4397 35.856 92.0317 35.568C91.6477 35.28 91.4557 34.92 91.4557 34.488V33.48C90.8077 34.224 90.0397 34.884 89.1517 35.46C88.2877 36.036 87.2317 36.324 85.9837 36.324ZM87.8557 32.868C88.3597 32.868 88.8637 32.712 89.3677 32.4C89.8717 32.064 90.2917 31.632 90.6277 31.104C90.9877 30.576 91.1677 30.012 91.1677 29.412V28.656H90.6277C89.8117 28.656 89.0437 28.704 88.3237 28.8C87.6277 28.896 87.0517 29.112 86.5957 29.448C86.1637 29.76 85.9477 30.252 85.9477 30.924C85.9477 31.596 86.1277 32.088 86.4877 32.4C86.8477 32.712 87.3037 32.868 87.8557 32.868ZM101.561 36C100.889 36 100.337 35.844 99.905 35.532C99.473 35.22 99.257 34.872 99.257 34.488V20.34C99.257 19.908 99.473 19.56 99.905 19.296C100.337 19.032 100.889 18.9 101.561 18.9C102.113 18.9 102.593 19.032 103.001 19.296C103.409 19.56 103.613 19.908 103.613 20.34V21.42C103.973 20.724 104.561 20.1 105.377 19.548C106.217 18.972 107.237 18.684 108.437 18.684C109.541 18.684 110.561 19.02 111.497 19.692C112.457 20.34 113.213 21.228 113.765 22.356C114.341 23.46 114.629 24.672 114.629 25.992V34.488C114.629 34.992 114.389 35.376 113.909 35.64C113.429 35.88 112.889 36 112.289 36C111.761 36 111.245 35.88 110.741 35.64C110.237 35.376 109.985 34.992 109.985 34.488V25.992C109.985 25.176 109.673 24.432 109.049 23.76C108.449 23.088 107.717 22.752 106.853 22.752C106.133 22.752 105.461 23.04 104.837 23.616C104.213 24.192 103.901 24.984 103.901 25.992V34.488C103.901 34.872 103.661 35.22 103.181 35.532C102.725 35.844 102.185 36 101.561 36ZM124.689 36C122.529 36 120.873 35.544 119.721 34.632C118.593 33.696 118.029 32.196 118.029 30.132V12.708C118.029 12.276 118.281 11.928 118.785 11.664C119.289 11.4 119.805 11.268 120.333 11.268C120.909 11.268 121.437 11.4 121.917 11.664C122.421 11.928 122.673 12.276 122.673 12.708V18.9H126.921C127.305 18.9 127.593 19.08 127.785 19.44C128.001 19.776 128.109 20.16 128.109 20.592C128.109 21.024 128.001 21.42 127.785 21.78C127.593 22.116 127.305 22.284 126.921 22.284H122.673V30.132C122.673 30.852 122.817 31.356 123.105 31.644C123.417 31.932 123.945 32.076 124.689 32.076H126.093C126.765 32.076 127.257 32.28 127.569 32.688C127.905 33.096 128.073 33.54 128.073 34.02C128.073 34.524 127.905 34.98 127.569 35.388C127.257 35.796 126.765 36 126.093 36H124.689Z" fill="white"/>
<path fill-rule="evenodd" clip-rule="evenodd" d="M21.9618 12.3878C15.8858 12.5579 11.3849 17.2672 11.3849 23.3739C11.3849 27.9543 15.0613 31.6183 19.6654 31.6183H21.1073C24.2639 31.6183 26.8228 29.0462 26.8228 25.8735V25.8735C26.8228 23.9727 25.2776 22.4343 23.3806 22.458C22.7511 22.4663 22.1529 22.7408 21.7213 23.2018L21.1036 23.8616C20.5408 24.4624 19.6022 24.5889 18.9501 24.0874C18.2006 23.5109 18.1201 22.427 18.7461 21.7462L19.1493 21.3079C20.2645 20.0945 21.8333 19.4047 23.4767 19.4047H23.4767C27.0024 19.4047 29.8608 22.2771 29.8608 25.8208V25.8208C29.8608 30.7091 25.9183 34.6716 21.055 34.6716H19.677C13.3887 34.6716 8.29115 29.5481 8.29115 23.2282V23.2282C8.29115 15.5513 14.4827 9.32825 22.1204 9.32825H41.7088C45.7357 9.32825 49 6.04722 49 1.99997H22.2011C10.492 1.99997 1 11.5406 1 23.3093V23.3093C1 33.6319 9.3258 41.9999 19.5963 41.9999H21.1443C29.8173 41.9999 36.848 34.9336 36.848 26.2159V25.4092C36.848 23.1402 36.27 20.9312 35.2555 19.0992H37.1519C40.8431 19.0992 43.8354 16.0917 43.8354 12.3816V12.3816L21.9618 12.3878Z" fill="white"/>
</g>
<defs>
<clipPath id="clip0">
<rect width="129" height="43" fill="white"/>
</clipPath>
</defs>
</svg>
